<svg xmlns="http://www.w3.org/2000/svg" viewBox="0 0 24 24" width="100%" height="100%">
  <!-- Docker Containers Grid -->
  <rect x="7" y="4" width="2.2" height="2" rx="0.3" fill="#2496ED"/>
  <rect x="10" y="4" width="2.2" height="2" rx="0.3" fill="#2496ED"/>
  <rect x="4" y="7" width="2.2" height="2" rx="0.3" fill="#2496ED"/>
  <rect x="7" y="7" width="2.2" height="2" rx="0.3" fill="#2496ED"/>
  <rect x="10" y="7" width="2.2" height="2" rx="0.3" fill="#2496ED"/>
  <rect x="13" y="7" width="2.2" height="2" rx="0.3" fill="#2496ED"/>
  <rect x="1" y="10" width="2.2" height="2" rx="0.3" fill="#2496ED"/>
  <rect x="4" y="10" width="2.2" height="2" rx="0.3" fill="#2496ED"/>
  <rect x="7" y="10" width="2.2" height="2" rx="0.3" fill="#2496ED"/>
  <rect x="10" y="10" width="2.2" height="2" rx="0.3" fill="#2496ED"/>
  <rect x="13" y="10" width="2.2" height="2" rx="0.3" fill="#2496ED"/>
  <!-- Docker Whale Body & Spout -->
  <path fill="#2496ED" d="M23.5 12.3c-.6-.3-1.4-.4-2.2-.3-.1-.5-.4-1-.8-1.5l-.4-.4-.4.4c-.8.7-1.4 1.5-1.7 2.6-.4-.1-.9-.1-1.3-.1H1c-.3 0-.5.2-.5.5v1.9c0 2.2.8 4.3 2.2 6 1.6 1.9 3.9 3.1 6.3 3.4.8.1 1.6.1 2.4.1 7 0 12.7-4.4 13.1-10.5 0-.3 0-.5 0-.8.1-.5-.3-1.1-1-1.4z"/>
</svg>
